<svg width="48" height="48" viewBox="0 0 48 48" fill="none" xmlns="http://www.w3.org/2000/svg">
<path d="M33.1979 24.7744C40.0391 24.7744 45.585 19.2284 45.585 12.3872C45.585 5.54593 40.0391 0 33.1979 0C26.3566 0 20.8107 5.54593 20.8107 12.3872C20.8107 19.2284 26.3566 24.7744 33.1979 24.7744Z" fill="#FF8087"/>
<path d="M35.9074 22.0645C29.0662 22.0645 23.5203 16.5187 23.5203 9.67744C23.5203 6.94876 24.4132 4.43457 25.908 2.38773C22.8231 4.64073 20.8107 8.27457 20.8107 12.3871C20.8107 19.2283 26.3565 24.7742 33.1978 24.7742C37.3103 24.7742 40.9442 22.7618 43.1972 19.6768C41.1504 21.1717 38.6361 22.0645 35.9074 22.0645Z" fill="#E6646E"/>
<path d="M33.1977 18.0454C32.6209 18.0454 32.1528 17.6091 32.1528 17.0323C32.1528 15.7319 32.9823 14.656 34.2169 14.2924C36.0336 13.757 37.108 11.9343 36.7156 10.0524C36.4336 8.70064 35.3358 7.60283 33.984 7.32083C32.8718 7.09096 31.7861 7.34502 30.9288 8.04364C30.0828 8.73092 29.5973 9.75008 29.5973 10.8388C29.5973 11.4156 29.1293 11.8836 28.5525 11.8836C27.9756 11.8836 27.5076 11.4156 27.5076 10.8388C27.5076 9.11802 28.2735 7.50767 29.6102 6.42121C30.9461 5.33474 32.6978 4.91671 34.4104 5.27502C36.5644 5.72333 38.3131 7.47205 38.7614 9.62605C39.3784 12.5837 37.678 15.4521 34.808 16.2974C34.4648 16.3987 34.2425 16.6618 34.2425 16.9687C34.2425 17.5456 33.7745 18.0454 33.1977 18.0454Z" fill="white"/>
<path d="M33.2053 21.1739C32.6284 21.1739 32.1567 20.7059 32.1567 20.129C32.1567 19.5522 32.6209 19.0842 33.1978 19.0842H33.2054C33.7822 19.0842 34.2502 19.5522 34.2502 20.129C34.2501 20.7059 33.7821 21.1739 33.2053 21.1739Z" fill="white"/>
<path d="M25.6584 33.5116L19.853 30.8496C19.3028 30.5973 18.95 30.0474 18.95 29.4421V25.5484H11.8325V29.4421C11.8325 30.0474 11.4797 30.5973 10.9295 30.8496L5.12408 33.5116C3.37986 34.3114 2.30689 36.1014 2.4237 38.0167L2.94392 46.5458C2.99389 47.3629 3.67095 48 4.48958 48H26.293C27.1115 48 27.7887 47.3629 27.8385 46.5458L28.3587 38.0167C28.4755 36.1014 27.4026 34.3114 25.6584 33.5116Z" fill="#B48764"/>
<path d="M25.6585 33.5116L21.2466 31.4886C20.6746 34.2013 18.2687 36.2382 15.3858 36.2382C12.5045 36.2382 10.0999 34.2036 9.52614 31.4932L5.1242 33.5117C3.37998 34.3116 2.30701 36.1015 2.42382 38.0168L2.94404 46.5459C2.99392 47.3629 3.67108 48 4.48951 48H26.293C27.1116 48 27.7887 47.3629 27.8385 46.5458L28.3587 38.0167C28.4755 36.1014 27.4027 34.3114 25.6585 33.5116Z" fill="#E6646E"/>
<path d="M6.40716 37.3613L3.95625 34.2787C2.9205 35.2095 2.33607 36.5775 2.42381 38.0167L2.94403 46.5458C2.99391 47.3629 3.67106 48 4.4895 48H7.56187V40.551C7.56197 39.3854 7.15331 38.2567 6.40716 37.3613Z" fill="#FF8087"/>
<path d="M24.3754 37.3613L26.8263 34.2787C27.862 35.2095 28.4465 36.5775 28.3587 38.0167L27.8385 46.5458C27.7887 47.3629 27.1116 48 26.293 48H23.2206V40.551C23.2206 39.3854 23.6292 38.2567 24.3754 37.3613Z" fill="#FF8087"/>
<path d="M11.8362 28.7147C12.9252 29.2147 14.1314 29.4942 15.395 29.4942C16.6586 29.4942 17.8648 29.2147 18.9537 28.7147V26.6472H11.8361L11.8362 28.7147Z" fill="#966D50"/>
<path d="M15.3947 12.4119C17.7533 12.4119 19.6653 10.4998 19.6653 8.14126C19.6653 5.78268 17.7533 3.87067 15.3947 3.87067C13.0361 3.87067 11.1241 5.78268 11.1241 8.14126C11.1241 10.4998 13.0361 12.4119 15.3947 12.4119Z" fill="#6E4B53"/>
<path d="M15.3947 23.8003C20.112 23.8003 23.9362 20.1356 23.9362 15.615C23.9362 11.0944 20.112 7.42969 15.3947 7.42969C10.6773 7.42969 6.85309 11.0944 6.85309 15.615C6.85309 20.1356 10.6773 23.8003 15.3947 23.8003Z" fill="#5C414B"/>
<path d="M12.5479 16.6826C9.70095 13.8356 9.27532 11.3811 9.34263 9.84076C7.80494 11.321 6.85394 13.3614 6.85394 15.615C6.85394 17.1586 7.3016 18.6002 8.07766 19.8306L12.5479 16.6826Z" fill="#503441"/>
<path d="M23.5103 18.1358C23.4533 18.1174 23.1022 18.1062 23.1022 18.1062C22.7247 18.1062 22.3626 17.9562 22.0956 17.6892L21.4814 17.075C21.2348 16.8284 20.909 16.6803 20.5609 16.6608C19.1754 16.5833 15.3337 16.2385 12.2815 14.7409C11.9557 14.581 11.5577 14.6681 11.3624 14.9739C10.5628 16.2258 9.57365 17.2192 9.01874 17.7296C8.75484 17.9724 8.41237 18.1062 8.05377 18.1062H7.54162C7.54124 18.1062 7.54096 18.1064 7.54049 18.1064C7.46249 18.1079 7.38281 18.1161 7.30171 18.1317C6.60899 18.2656 6.14221 18.9278 6.14221 19.6333V20.1491C6.14221 20.8299 6.57815 21.4722 7.24115 21.627C7.39049 21.6619 7.53581 21.6717 7.67493 21.6607C8.02884 21.6324 8.33774 21.89 8.40149 22.2392C9.00656 25.5555 11.904 28.0708 15.3951 28.0708C18.8863 28.0708 21.7836 25.5555 22.3888 22.2392C22.4526 21.89 22.7615 21.6324 23.1154 21.6607C23.2545 21.6717 23.3998 21.6619 23.5491 21.627C24.2121 21.4722 24.648 20.8299 24.648 20.1491V19.5006C24.6479 18.8306 24.1475 18.3428 23.5103 18.1358Z" fill="#C39772"/>
<path d="M11.1245 20.9532V15.3273C10.3743 16.4111 9.51987 17.2685 9.01868 17.7296C8.75477 17.9724 8.41231 18.1062 8.05371 18.1062H7.54156C7.54118 18.1062 7.5409 18.1064 7.54043 18.1064C7.46243 18.1078 7.38274 18.1161 7.30165 18.1317C6.60893 18.2656 6.14215 18.9278 6.14215 19.6333V20.1491C6.14215 20.8299 6.57809 21.4722 7.24109 21.627C7.39043 21.6619 7.53574 21.6717 7.67478 21.6606C8.02868 21.6324 8.33759 21.89 8.40134 22.2392C9.0064 25.5555 11.9038 28.0708 15.395 28.0708C15.8789 28.0708 16.3497 28.018 16.8063 27.9259C13.5637 27.2616 11.1245 24.3922 11.1245 20.9532Z" fill="#B48764"/>
</svg>
