<svg width="18" height="19" viewBox="0 0 18 19" fill="none" xmlns="http://www.w3.org/2000/svg">
<path d="M17.5349 4.67588L9.44119 0.0508812C9.3225 -0.0169401 9.17757 -0.0169401 9.05887 0.0508812L0.965124 4.67588C0.844874 4.7445 0.770874 4.87244 0.770874 5.01044V13.4896C0.770874 13.6276 0.844874 13.7556 0.965124 13.8242L9.05887 18.4492C9.11824 18.4831 9.18375 18.5 9.25005 18.5C9.31636 18.5 9.38186 18.4831 9.44123 18.4492L17.535 13.8242C17.6552 13.7556 17.7292 13.6276 17.7292 13.4896V5.01044C17.7292 4.87244 17.6552 4.7445 17.5349 4.67588ZM16.9583 13.2661L9.25002 17.6706L1.5417 13.2661V5.23395L9.25002 0.829435L16.9583 5.23399V13.2661Z" fill="#696969"/>
</svg>
